<svg xmlns="http://www.w3.org/2000/svg" viewBox="0 0 660 460" width="660" height="460" style="background: transparent;">
  <style>
    text { font-family: "Hanken Grotesk", system-ui, -apple-system, "Segoe UI", Helvetica, Arial, sans-serif; }
    .label { font-size: 14px; fill: #e2e8f0; font-weight: 600; }
    .title { font-size: 16px; fill: #62feb5; font-weight: 600; }
    .sub { font-size: 12px; fill: #94a3b8; }
    .box { rx: 10; ry: 10; stroke-width: 1.5; fill: #142229; stroke: #2a3731; }
    .accent { rx: 10; ry: 10; stroke-width: 1.5; fill: #142229; stroke: #62feb5; stroke-opacity: 0.5; }
    .arrow { stroke: #62feb5; stroke-width: 2; fill: none; }
    .divider { stroke: #2a3731; stroke-width: 1; stroke-dasharray: 4 4; }
    .group { rx: 12; ry: 12; stroke-width: 1; stroke-dasharray: 5 4; fill: none; stroke: #2a3731; }
  </style>

  <defs>
    <marker id="arrowhead" markerWidth="8" markerHeight="6" refX="8" refY="3" orient="auto">
      <polygon points="0 0, 8 3, 0 6" fill="#62feb5" />
    </marker>
  </defs>

  <!-- LEFT SIDE: The normal way -->
  <text x="195" y="32" text-anchor="middle" class="title">The normal way</text>
  <text x="195" y="50" text-anchor="middle" class="sub">five stores, one sync script</text>

  <rect x="100" y="78" width="80" height="38" class="box"/>
  <text x="140" y="102" text-anchor="middle" class="label">Query</text>

  <text x="130" y="142" text-anchor="middle" class="sub">Data stores</text>
  <rect x="38" y="148" width="184" height="148" class="group"/>

  <rect x="48" y="158" width="164" height="34" class="box"/>
  <text x="130" y="180" text-anchor="middle" class="label">Vector DB</text>

  <rect x="48" y="200" width="164" height="34" class="box"/>
  <text x="130" y="222" text-anchor="middle" class="label">Postgres</text>

  <rect x="48" y="242" width="164" height="34" class="box"/>
  <text x="130" y="264" text-anchor="middle" class="label">Redis</text>

  <rect x="78" y="328" width="124" height="38" class="box"/>
  <text x="140" y="352" text-anchor="middle" class="label">Reranker</text>

  <rect x="100" y="396" width="80" height="38" class="box"/>
  <text x="140" y="420" text-anchor="middle" class="label">Results</text>

  <!-- Side elements -->
  <rect x="255" y="163" width="120" height="34" class="box"/>
  <text x="315" y="185" text-anchor="middle" class="label">S3 (raw)</text>

  <rect x="255" y="226" width="120" height="36" class="box"/>
  <text x="315" y="249" text-anchor="middle" class="label">Sync script</text>

  <rect x="255" y="328" width="120" height="38" class="box"/>
  <text x="315" y="352" text-anchor="middle" class="label">Logging svc</text>

  <!-- Main flow arrows -->
  <path d="M140,116 L140,148" class="arrow" marker-end="url(#arrowhead)"/>
  <path d="M140,296 L140,328" class="arrow" marker-end="url(#arrowhead)"/>
  <path d="M140,366 L140,396" class="arrow" marker-end="url(#arrowhead)"/>

  <!-- Side arrows -->
  <path d="M315,197 L315,226" class="arrow" marker-end="url(#arrowhead)"/>
  <path d="M255,244 L222,244" class="arrow" marker-end="url(#arrowhead)"/>

  <!-- DIVIDER -->
  <line x1="390" y1="20" x2="390" y2="445" class="divider"/>

  <!-- RIGHT SIDE: One bucket on Tigris -->
  <text x="530" y="32" text-anchor="middle" class="title">One bucket on Tigris</text>
  <text x="530" y="50" text-anchor="middle" class="sub">two engines, one file, no sync</text>

  <rect x="490" y="80" width="80" height="44" class="box"/>
  <text x="530" y="107" text-anchor="middle" class="label">Query</text>

  <rect x="445" y="174" width="170" height="48" class="accent"/>
  <text x="530" y="203" text-anchor="middle" class="label" fill="#62feb5">DuckDB / LanceDB</text>

  <rect x="420" y="268" width="220" height="68" class="accent"/>
  <text x="530" y="295" text-anchor="middle" class="label" fill="#62feb5">Lance file on Tigris</text>
  <text x="530" y="315" text-anchor="middle" class="sub">vectors + metadata + raw files</text>

  <rect x="480" y="400" width="100" height="44" class="box"/>
  <text x="530" y="427" text-anchor="middle" class="label">Results</text>

  <path d="M530,124 L530,174" class="arrow" marker-end="url(#arrowhead)"/>
  <path d="M530,222 L530,268" class="arrow" marker-end="url(#arrowhead)"/>
  <path d="M530,336 L530,400" class="arrow" marker-end="url(#arrowhead)"/>
</svg>
