<?xml version="1.0" encoding="UTF-8"?><svg id="a" xmlns="http://www.w3.org/2000/svg" xmlns:xlink="http://www.w3.org/1999/xlink" viewBox="0 0 618 615"><defs><style>.c{fill:url(#b);}.d{fill:#edb61e;}</style><linearGradient id="b" x1="199.06" y1="307.5" x2="351.29" y2="307.5" gradientTransform="matrix(1, 0, 0, 1, 0, 0)" gradientUnits="userSpaceOnUse"><stop offset=".09" stop-color="#57c0a6"/><stop offset=".65" stop-color="#94d3c7"/></linearGradient></defs><path class="d" d="M385.5,343.57l-5.64-12.39c-3.22-7.09-8.94-12.72-16.07-15.8l-12.51-5.41,12.42-5.67c7.03-3.23,12.61-8.99,15.63-16.15l5.39-12.48,5.64,12.39c3.22,7.09,8.94,12.72,16.07,15.8l12.51,5.41-12.42,5.67c-7.01,3.23-12.58,8.95-15.63,16.06l-5.39,12.57Z"/><path class="c" d="M295.54,296.69v-54.79h44.65v-44.74H199.06v44.74h44v55.04c0,55.71,28.32,120.89,108.24,120.89v-43.4c-40.81-.25-55.75-32.59-55.75-77.74Z"/></svg>