<svg xmlns="http://www.w3.org/2000/svg" viewBox="0 0 900 220" width="900" height="220" style="background: transparent;">
  <style>
    text { font-family: -apple-system, BlinkMacSystemFont, "Segoe UI", Helvetica, Arial, sans-serif; }
    .label { font-size: 15px; fill: #1e293b; font-weight: 600; }
    .sublabel { font-size: 11px; fill: #64748b; }
    .arrow { stroke: #94a3b8; stroke-width: 2; fill: none; marker-end: url(#arrowhead); }
    .box { rx: 10; ry: 10; stroke-width: 2; }
  </style>
  <defs>
    <marker id="arrowhead" markerWidth="8" markerHeight="6" refX="8" refY="3" orient="auto">
      <polygon points="0 0, 8 3, 0 6" fill="#94a3b8" />
    </marker>
  </defs>

  <!-- You -->
  <rect x="20" y="60" width="120" height="100" class="box" fill="#eff6ff" stroke="#3b82f6" />
  <text x="80" y="105" text-anchor="middle" class="label">You</text>
  <text x="80" y="125" text-anchor="middle" class="sublabel">"set up a bucket</text>
  <text x="80" y="139" text-anchor="middle" class="sublabel">for my project"</text>

  <!-- Arrow 1 -->
  <line x1="140" y1="110" x2="195" y2="110" class="arrow" />

  <!-- AI Agent -->
  <rect x="200" y="60" width="120" height="100" class="box" fill="#f5f3ff" stroke="#8b5cf6" />
  <text x="260" y="105" text-anchor="middle" class="label">AI Agent</text>
  <text x="260" y="125" text-anchor="middle" class="sublabel">Claude Code,</text>
  <text x="260" y="139" text-anchor="middle" class="sublabel">Cursor, etc.</text>

  <!-- Arrow 2 -->
  <line x1="320" y1="110" x2="375" y2="110" class="arrow" />

  <!-- Plugin -->
  <rect x="380" y="30" width="180" height="160" class="box" fill="#f0fdf4" stroke="#22c55e" />
  <text x="470" y="62" text-anchor="middle" class="label">Tigris Plugin</text>
  <rect x="396" y="76" width="148" height="28" rx="6" ry="6" fill="#dcfce7" stroke="#86efac" stroke-width="1" />
  <text x="470" y="95" text-anchor="middle" class="sublabel">5 Skills</text>
  <rect x="396" y="112" width="148" height="28" rx="6" ry="6" fill="#dcfce7" stroke="#86efac" stroke-width="1" />
  <text x="470" y="131" text-anchor="middle" class="sublabel">Storage Subagent</text>
  <rect x="396" y="148" width="148" height="28" rx="6" ry="6" fill="#dcfce7" stroke="#86efac" stroke-width="1" />
  <text x="470" y="167" text-anchor="middle" class="sublabel">Security Rules</text>

  <!-- Arrow 3 -->
  <line x1="560" y1="110" x2="615" y2="110" class="arrow" />

  <!-- CLI / MCP -->
  <rect x="620" y="60" width="120" height="100" class="box" fill="#f8fafc" stroke="#94a3b8" />
  <text x="680" y="100" text-anchor="middle" class="label">CLI</text>
  <text x="680" y="118" text-anchor="middle" class="sublabel">&amp;</text>
  <text x="680" y="136" text-anchor="middle" class="label">MCP</text>

  <!-- Arrow 4 -->
  <line x1="740" y1="110" x2="795" y2="110" class="arrow" />

  <!-- Tigris Storage -->
  <rect x="800" y="60" width="80" height="100" class="box" fill="#fefce8" stroke="#eab308" />
  <text x="840" y="100" text-anchor="middle" class="label" font-size="13">Tigris</text>
  <text x="840" y="120" text-anchor="middle" class="label" font-size="13">Storage</text>
</svg>
