<svg xmlns="http://www.w3.org/2000/svg" viewBox="0 0 900 220" width="900" height="220" style="background: transparent;">
  <style>
    text { font-family: "Hanken Grotesk", system-ui, -apple-system, "Segoe UI", Helvetica, Arial, sans-serif; }
    .label { font-size: 15px; fill: #e2e8f0; font-weight: 600; }
    .sublabel { font-size: 11px; fill: #94a3b8; }
    .arrow { stroke: #62feb5; stroke-width: 2; fill: none; marker-end: url(#arrowhead); }
    .box { rx: 10; ry: 10; stroke-width: 1.5; }
  </style>
  <defs>
    <marker id="arrowhead" markerWidth="8" markerHeight="6" refX="8" refY="3" orient="auto">
      <polygon points="0 0, 8 3, 0 6" fill="#62feb5" />
    </marker>
  </defs>

  <!-- You -->
  <rect x="20" y="60" width="120" height="100" class="box" fill="#142229" stroke="#2a3731" />
  <text x="80" y="105" text-anchor="middle" class="label">You</text>
  <text x="80" y="125" text-anchor="middle" class="sublabel">"set up a bucket</text>
  <text x="80" y="139" text-anchor="middle" class="sublabel">for my project"</text>

  <!-- Arrow 1 -->
  <line x1="140" y1="110" x2="195" y2="110" class="arrow" />

  <!-- AI Agent -->
  <rect x="200" y="60" width="120" height="100" class="box" fill="#142229" stroke="#2a3731" />
  <text x="260" y="105" text-anchor="middle" class="label">AI Agent</text>
  <text x="260" y="125" text-anchor="middle" class="sublabel">Claude Code,</text>
  <text x="260" y="139" text-anchor="middle" class="sublabel">Cursor, etc.</text>

  <!-- Arrow 2 -->
  <line x1="320" y1="110" x2="375" y2="110" class="arrow" />

  <!-- Plugin -->
  <rect x="380" y="30" width="180" height="160" class="box" fill="#142229" stroke="#62feb5" stroke-opacity="0.5" />
  <text x="470" y="62" text-anchor="middle" class="label" fill="#62feb5">Tigris Plugin</text>
  <rect x="396" y="76" width="148" height="28" rx="6" ry="6" fill="rgba(98,254,181,0.08)" stroke="rgba(98,254,181,0.3)" stroke-width="1" />
  <text x="470" y="95" text-anchor="middle" class="sublabel" fill="#bac1be">5 Skills</text>
  <rect x="396" y="112" width="148" height="28" rx="6" ry="6" fill="rgba(98,254,181,0.08)" stroke="rgba(98,254,181,0.3)" stroke-width="1" />
  <text x="470" y="131" text-anchor="middle" class="sublabel" fill="#bac1be">Storage Subagent</text>
  <rect x="396" y="148" width="148" height="28" rx="6" ry="6" fill="rgba(98,254,181,0.08)" stroke="rgba(98,254,181,0.3)" stroke-width="1" />
  <text x="470" y="167" text-anchor="middle" class="sublabel" fill="#bac1be">Security Rules</text>

  <!-- Arrow 3 -->
  <line x1="560" y1="110" x2="615" y2="110" class="arrow" />

  <!-- CLI / MCP -->
  <rect x="620" y="60" width="120" height="100" class="box" fill="#142229" stroke="#2a3731" />
  <text x="680" y="100" text-anchor="middle" class="label">CLI</text>
  <text x="680" y="118" text-anchor="middle" class="sublabel">&amp;</text>
  <text x="680" y="136" text-anchor="middle" class="label">MCP</text>

  <!-- Arrow 4 -->
  <line x1="740" y1="110" x2="795" y2="110" class="arrow" />

  <!-- Tigris Storage -->
  <rect x="800" y="60" width="80" height="100" class="box" fill="#142229" stroke="#62feb5" />
  <text x="840" y="100" text-anchor="middle" class="label" font-size="13" fill="#62feb5">Tigris</text>
  <text x="840" y="120" text-anchor="middle" class="label" font-size="13" fill="#62feb5">Storage</text>
</svg>
