<svg
  xmlns="http://www.w3.org/2000/svg"
  viewBox="0 0 720 320"
  width="720"
  height="320"
  style="background: transparent"
>
  <style>
    text {
      font-family: "Hanken Grotesk", system-ui, -apple-system, "Segoe UI",
        Helvetica, Arial, sans-serif;
    }
    .title { font-size: 16px; fill: #62feb5; font-weight: 600; }
    .sub { font-size: 12px; fill: #94a3b8; }
    .label { font-size: 13px; fill: #e2e8f0; font-weight: 600; }
    .small { font-size: 12px; fill: #bac1be; }
    .node { rx: 6; ry: 6; fill: #1a2e35; stroke: #2a4050; stroke-width: 1.5; }
    .accent { rx: 6; ry: 6; fill: rgba(98, 254, 181, 0.12); stroke: rgba(98, 254, 181, 0.5); stroke-width: 1.5; }
  </style>

  <text x="360" y="25" text-anchor="middle" class="title">Two-layer read path</text>
  <text x="360" y="45" text-anchor="middle" class="sub">Redis edge cache in front of FoundationDB + S3 block storage</text>

  <!-- Client -->
  <rect x="20" y="120" width="110" height="60" class="node" />
  <text x="75" y="156" text-anchor="middle" class="label">Client</text>

  <!-- Gateway -->
  <rect x="180" y="120" width="110" height="60" class="node" />
  <text x="235" y="156" text-anchor="middle" class="label">Gateway</text>

  <!-- Edge cache -->
  <rect x="340" y="120" width="140" height="60" class="accent" />
  <text x="410" y="148" text-anchor="middle" class="label">Edge cache</text>
  <text x="410" y="166" text-anchor="middle" class="small">Redis</text>

  <!-- FDB -->
  <rect x="540" y="70" width="150" height="60" class="node" />
  <text x="615" y="98" text-anchor="middle" class="label">FoundationDB</text>
  <text x="615" y="116" text-anchor="middle" class="small">metadata</text>

  <!-- Blocks -->
  <rect x="540" y="170" width="150" height="60" class="node" />
  <text x="615" y="198" text-anchor="middle" class="label">Block storage</text>
  <text x="615" y="216" text-anchor="middle" class="small">S3</text>

  <!-- Arrows -->
  <defs>
    <marker id="arr" viewBox="0 0 10 10" refX="9" refY="5" markerWidth="8" markerHeight="8" orient="auto-start-reverse">
      <path d="M0,0 L10,5 L0,10 Z" fill="#94a3b8" />
    </marker>
    <marker id="arrg" viewBox="0 0 10 10" refX="9" refY="5" markerWidth="8" markerHeight="8" orient="auto-start-reverse">
      <path d="M0,0 L10,5 L0,10 Z" fill="#62feb5" />
    </marker>
  </defs>

  <line x1="130" y1="150" x2="180" y2="150" stroke="#94a3b8" stroke-width="1.5" marker-end="url(#arr)" />
  <line x1="290" y1="150" x2="340" y2="150" stroke="#94a3b8" stroke-width="1.5" marker-end="url(#arr)" />

  <!-- Cache hit arc back -->
  <path d="M 410 120 Q 322 40 235 120" fill="none" stroke="#62feb5" stroke-width="1.5" stroke-dasharray="4 3" marker-end="url(#arrg)" />
  <text x="322" y="52" text-anchor="middle" class="small" fill="#62feb5">hit: return without touching FDB</text>

  <!-- Cache miss to FDB -->
  <line x1="480" y1="140" x2="540" y2="100" stroke="#94a3b8" stroke-width="1.5" stroke-dasharray="4 3" marker-end="url(#arr)" />
  <line x1="480" y1="160" x2="540" y2="200" stroke="#94a3b8" stroke-width="1.5" stroke-dasharray="4 3" marker-end="url(#arr)" />
  <text x="510" y="258" text-anchor="middle" class="small">miss: FDB + block read, then populate</text>

  <!-- legend -->
  <line x1="120" y1="290" x2="155" y2="290" stroke="#62feb5" stroke-width="1.5" stroke-dasharray="4 3" />
  <text x="163" y="294" class="small" fill="#62feb5">cache hit</text>
  <line x1="250" y1="290" x2="285" y2="290" stroke="#94a3b8" stroke-width="1.5" stroke-dasharray="4 3" />
  <text x="293" y="294" class="small">cache miss</text>
  <line x1="390" y1="290" x2="425" y2="290" stroke="#94a3b8" stroke-width="1.5" />
  <text x="433" y="294" class="small">request flow</text>
</svg>
